# AST/ASF file generated using VICON BodyLanguage
# -----------------------------------------------
:version 1.10
:name VICON
:units
  mass 1.0
  length 0.45
  angle deg
:documentation
   .ast/.asf automatically generated from VICON data using
   VICON BodyBuilder and BodyLanguage model FoxedUp or BRILLIANT.MOD
:root
   order TX TY TZ RX RY RZ
   axis XYZ
   position 0 0 0  
   orientation 0 0 0 
:bonedata
  begin
     id 1 
     name lhipjoint
     direction 0.621036 -0.695554 0.361275 
     length 2.46325 
     axis 0 0 0  XYZ
  end
  begin
     id 2 
     name lfemur
     direction 0.34202 -0.939693 0  
     length 6.54784  
     axis 0 0 20  XYZ
    dof rx ry rz
    limits (-160.0 20.0)
           (-70.0 70.0)
           (-60.0 70.0)
  end
  begin
     id 3 
     name ltibia
     direction 0.34202 -0.939693 0   
     length 7.84737   
     axis 0 0 20   XYZ
    dof rx
    limits (-10.0 170.0)
  end
  begin
     id 4 
     name lfoot
     direction 0.0790693 -0.217241 0.97291   
     length 2.59747   
     axis -90 7.62852e-016 20   XYZ
    dof rx rz
    limits (-45.0 90.0)
           (-70.0 20.0)
  end
  begin
     id 5 
     name ltoes
     direction 1.53572e-011 -4.21898e-011 1   
     length 1.29919   
     axis -90 7.62852e-016 20   XYZ
    dof rx
    limits (-90.0 20.0)
  end
  begin
     id 6 
     name rhipjoint
     direction -0.602353 -0.708375 0.367935   
     length 2.41867  
     axis 0 0 0  XYZ 
  end
  begin
     id 7 
     name rfemur
     direction -0.34202 -0.939693 0   
     length 6.92065   
     axis 0 0 -20   XYZ
    dof rx ry rz
    limits (-160.0 20.0)
           (-70.0 70.0)
           (-70.0 60.0)
  end
  begin
     id 8 
     name rtibia
     direction -0.34202 -0.939693 0   
     length 7.88883   
     axis 0 0 -20   XYZ
    dof rx
    limits (-10.0 170.0)
 end
 begin
     id 9 
     name rfoot
     direction -0.0768692 -0.211196 0.974416   
     length 2.43714  
     axis -90 -7.62852e-016 -20   XYZ
    dof rx rz
    limits (-45.0 90.0)
           (-20.0 70.0)
  end
  begin
     id 10 
     name rtoes
     direction -1.53575e-011 -4.21933e-011 1   
     length 1.22113   
     axis -90 -7.62852e-016 -20   XYZ
    dof rx
    limits (-90.0 20.0)
  end
  begin
     id 11 
     name lowerback
     direction 0.0197937 0.98943 -0.143655   
     length 2.16931   
     axis 0 0 0   XYZ
    dof rx ry rz
    limits (-20.0 45.0)
           (-30.0 30.0)
           (-30.0 30.0)
  end
  begin
     id 12 
     name upperback
     direction -0.00183968 0.999975 0.00684288   
     length 2.17221   
     axis 0 0 0   XYZ
    dof rx ry rz
    limits (-20.0 45.0)
           (-30.0 30.0)
           (-30.0 30.0)
  end
  begin
     id 13 
     name thorax
     direction -0.00950244 0.997208 0.0740685   
     length 2.22549   
     axis 0 0 0   XYZ
    dof rx ry rz
    limits (-20.0 45.0)
           (-30.0 30.0)
           (-30.0 30.0)
  end
  begin
     id 14 
     name lowerneck
     direction 0.0218238 0.996215 0.0841425   
     length 1.77269   
     axis 0 0 0   XYZ
    dof rx ry rz
    limits (-20.0 45.0)
           (-30.0 30.0)
           (-30.0 30.0)
  end
  begin
     id 15 
     name upperneck
     direction -0.00430652 0.994214 -0.107332   
     length 1.76534   
     axis 0 0 0   XYZ
    dof rx ry rz
    limits (-20.0 45.0)
           (-30.0 30.0)
           (-30.0 30.0)
  end
  begin
     id 16
     name head
     direction -0.00328946 0.998959 -0.0454998  
     length 1.82634  
     axis 0 0 0   XYZ
    dof rx ry rz
    limits (-20.0 45.0)
           (-30.0 30.0)
           (-30.0 30.0)
  end
  begin
     id 17 
     name lclavicle
     direction 0.970962 0.239191 0.00450212  
     length 3.84872  
     axis 0 0 0   XYZ
    dof ry rz
    limits (-20.0 10.0)
           (0.0 20.0)
  end
  begin
     id 18 
     name lhumerus
     direction 1 -4.48966e-011 5.74696e-028   
     length 5.22771   
     axis 180 -30 -90   XYZ
    dof rx ry rz
    limits (-60.0 90.0)
           (-90.0 90.0)
           (-90.0 90.0)
  end
  begin
     id 19
     name lradius
     direction 1 -4.4896e-011 4.25109e-027   
     length 3.45251   
     axis 180 -30 -90   XYZ
    dof rx
    limits (-10.0 170.0)
  end
  begin
     id 20
     name lwrist
     direction 1 -4.48971e-011 1.15382e-027   
     length 1.72626   
     axis -5.52449e-016 90 90   XYZ
    dof ry
    limits (-180.0 0.0)
 end
  begin
     id 21 
     name lhand
     direction 1 -4.49034e-011 2.30765e-027   
     length 0.552119   
     axis -1.47248e-015 90 90   XYZ
    dof rx rz
    limits (-90.0 90.0)
           (-45.0 45.0)
  end
  begin
     id 22 
     name lfingers
     direction 1 -4.48951e-011 4.61529e-027   
     length 0.445133   
     axis -2.94495e-015 90 90   XYZ
    dof rx
    limits (0.0 90.0)
  end
  begin
     id 23
     name lthumb
     direction 0.707107 -6.34991e-011 0.707107   
     length 0.639124   
     axis -90 45 2.85299e-015   XYZ
    dof rx rz
    limits (-45.0 45.0)
           (-45.0 45.0)
  end
  begin
     id 24 
     name rclavicle
     direction -0.97424 0.222511 -0.0366699   
     length 3.73439  
     axis 0 0 0   XYZ 
    dof ry rz
    limits (-10.0 20.0)
           (-20.0 0.0)
  end
  begin
     id 25 
     name rhumerus
     direction -1 -4.48956e-011 -4.97258e-028  
     length 5.2398   
     axis 180 30 90   XYZ
    dof rx ry rz
    limits (-90.0 60.0)
           (-90.0 90.0)
           (-90.0 90.0)
  end
  begin
     id 26 
     name rradius
     direction -1 -4.4897e-011 -1.72611e-027   
     length 3.48042   
     axis 180 30 90   XYZ
    dof rx
    limits (-10.0 170.0)
  end
  begin
     id 27 
     name rwrist
     direction -1 -4.48976e-011 1.15382e-027   
     length 1.74021   
     axis -5.52449e-016 -90 -90   XYZ
    dof ry
    limits (-180.0 0.0)
  end
  begin
     id 28
     name rhand
     direction -1 -4.48963e-011 2.30765e-027   
     length 0.618713   
     axis -1.47248e-015 -90 -90   XYZ
    dof rx rz
    limits (-90.0 90.0)
           (-45.0 45.0)
  end
  begin
     id 29
     name rfingers
     direction -1 -4.4888e-011 4.61529e-027   
     length 0.498823   
     axis -2.94495e-015 -90 -90   XYZ
    dof rx
    limits (0.0 90.0)
  end
  begin
     id 30
     name rthumb
     direction -0.707107 -6.34968e-011 0.707107   
     length 0.716213   
     axis -90 -45 -2.85299e-015   XYZ
    dof rx rz
    limits (-45.0 45.0)
           (-45.0 45.0)
  end
:hierarchy
  begin
    root lhipjoint rhipjoint lowerback
    lhipjoint lfemur
    lfemur ltibia
    ltibia lfoot
    lfoot ltoes
    rhipjoint rfemur
    rfemur rtibia
    rtibia rfoot
    rfoot rtoes
    lowerback upperback
    upperback thorax
    thorax lowerneck lclavicle rclavicle
    lowerneck upperneck
    upperneck head
    lclavicle lhumerus
    lhumerus lradius
    lradius lwrist
    lwrist lhand lthumb
    lhand lfingers
    rclavicle rhumerus
    rhumerus rradius
    rradius rwrist
    rwrist rhand rthumb
    rhand rfingers
  end

#!OML:ASF G:\JayActor3\Patient Classification 1\Patient 1\Session 5\male.ASF
:FULLY-SPECIFIED
:DEGREES
135
root 45.4469 13.5539 -4.14214 -166.82 84.7554 176.565
lowerback 30.5959 -2.44946 1.03237
upperback 7.36655 -2.00772 0.345163
thorax -8.4919 -0.650424 0.481262
lowerneck -5.38215 -0.295767 2.48718
upperneck -17.8266 0.265576 0.282708
head -5.01753 0.257351 -0.372227
rclavicle -9.34288e-015 -1.31198e-014
rhumerus -17.9388 7.20224 -84.3662
rradius 46.4366
rwrist -6.88561
rhand -21.144 -7.72404
rfingers 7.12502
rthumb 5.23529 -37.6394
lclavicle -9.34288e-015 -1.31198e-014
lhumerus -18.0507 -11.9056 83.302
lradius 43.8218
lwrist 25.4671
lhand -18.0151 13.1195
lfingers 7.12502
lthumb 8.25572 42.9382
rfemur -67.7154 -8.69789 22.6587
rtibia 85.3232
rfoot -29.6441 -9.78599
rtoes -4.13903
lfemur -65.9592 5.14545 -23.5089
ltibia 78.8132
lfoot -25.8333 8.13206
ltoes -11.072
136
root 45.4296 13.5488 -4.16728 -166.483 84.8589 176.961
lowerback 30.6649 -2.45368 1.02548
upperback 7.37979 -2.01149 0.347215
thorax -8.50934 -0.651081 0.490342
lowerneck -5.35524 -0.269088 2.50724
upperneck -17.8498 0.299724 0.259694
head -5.03129 0.273733 -0.384747
rclavicle -1.2921e-015 -1.72943e-014
rhumerus -17.947 7.15524 -84.3492
rradius 46.4688
rwrist -6.89436
rhand -21.1478 -7.7193
rfingers 7.12502
rthumb 5.23163 -37.6347
lclavicle -1.2921e-015 -1.72943e-014
lhumerus -17.9749 -11.8578 83.2789
lradius 43.7814
lwrist 25.458
lhand -18.0319 13.1351
lfingers 7.12502
lthumb 8.23952 42.9544
rfemur -67.7625 -8.6602 22.5679
rtibia 85.3511
rfoot -29.5058 -9.7409
rtoes -4.19622
lfemur -65.9826 5.11877 -23.5807
ltibia 78.8684
lfoot -25.8299 8.24034
ltoes -10.9226
137
root 45.4114 13.5444 -4.19343 -166.122 84.9705 177.383
lowerback 30.7361 -2.45524 1.01786
upperback 7.3948 -2.01193 0.349339
thorax -8.5257 -0.650105 0.498725
lowerneck -5.32563 -0.244921 2.52404
upperneck -17.8782 0.331374 0.240944
head -5.04764 0.288919 -0.395221
rclavicle 1.09332e-015 6.75868e-015
rhumerus -17.947 7.09811 -84.3301
rradius 46.4943
rwrist -6.89216
rhand -21.1431 -7.71811
rfingers 7.12502
rthumb 5.23618 -37.6334
lclavicle 1.09332e-015 6.75868e-015
lhumerus -17.8952 -11.8089 83.2589
lradius 43.7423
lwrist 25.45
lhand -18.0593 13.1469
lfingers 7.12502
lthumb 8.21308 42.9673
rfemur -67.8106 -8.62448 22.4745
rtibia 85.3714
rfoot -29.3491 -9.68502
rtoes -4.26226
lfemur -66.002 5.10098 -23.6582
ltibia 78.9131
lfoot -25.8247 8.34395
ltoes -10.7667
138
root 45.3924 13.5408 -4.22072 -165.699 85.09 177.865
lowerback 30.8057 -2.45597 1.01506
upperback 7.41399 -2.00975 0.349809
thorax -8.53678 -0.647874 0.501382
lowerneck -5.3011 -0.224837 2.53977
upperneck -17.9072 0.358229 0.228024
head -5.06326 0.301591 -0.403382
rclavicle -1.41137e-014 -2.43511e-014
rhumerus -17.9342 7.03644 -84.312
rradius 46.5081
rwrist -6.88757
rhand -21.1503 -7.71106
rfingers 7.12502
rthumb 5.22921 -37.6265
lclavicle -1.41137e-014 -2.43511e-014
lhumerus -17.8055 -11.7644 83.2365
lradius 43.7028
lwrist 25.4435
lhand -18.0915 13.1552
lfingers 7.12502
lthumb 8.18206 42.9768
rfemur -67.8604 -8.59272 22.3805
rtibia 85.3831
rfoot -29.17 -9.60902
rtoes -4.3279
lfemur -66.0179 5.09211 -23.7389
ltibia 78.9463
lfoot -25.8176 8.44876
ltoes -10.6178
139
root 45.3727 13.5382 -4.24916 -165.153 85.2204 178.471
lowerback 30.8764 -2.45524 1.02026
upperback 7.43645 -2.00323 0.348514
thorax -8.54494 -0.643648 0.495773
lowerneck -5.28877 -0.208212 2.5514
upperneck -17.9268 0.380916 0.223679
head -5.07297 0.312093 -0.407671
rclavicle -1.93815e-014 -7.45443e-015
rhumerus -17.9126 6.96436 -84.2988
rradius 46.5141
rwrist -6.88364
rhand -21.1732 -7.70639
rfingers 7.12502
rthumb 5.20711 -37.6224
lclavicle -1.93815e-014 -7.45443e-015
lhumerus -17.7085 -11.725 83.2112
lradius 43.6651
lwrist 25.4325
lhand -18.1171 13.1609
lfingers 7.12502
lthumb 8.15732 42.9834
rfemur -67.9091 -8.55714 22.2884
rtibia 85.3847
rfoot -28.9673 -9.51607
rtoes -4.41549
lfemur -66.0282 5.09764 -23.8183
ltibia 78.9671
lfoot -25.8101 8.5411
ltoes -10.4369
140
root 45.352 13.5366 -4.27874 -164.478 85.3644 179.204
lowerback 30.946 -2.45248 1.03112
upperback 7.46367 -1.99251 0.343802
thorax -8.54747 -0.637448 0.481366
lowerneck -5.3137 -0.197919 2.57823
upperneck -17.9235 0.392703 0.2162
head -5.06684 0.316524 -0.415148
rclavicle 2.32578e-014 -2.71341e-014
rhumerus -17.8781 6.88263 -84.2933
rradius 46.5129
rwrist -6.88309
rhand -21.2131 -7.69584
rfingers 7.12502
rthumb 5.16857 -37.6128
lclavicle 2.32578e-014 -2.71341e-014
lhumerus -17.6003 -11.6938 83.1779
lradius 43.6305
lwrist 25.4175
lhand -18.1281 13.174
lfingers 7.12502
lthumb 8.14672 42.997
rfemur -67.9614 -8.51574 22.1971
rtibia 85.3768
rfoot -28.7362 -9.40508
rtoes -4.52618
lfemur -66.0356 5.1207 -23.8979
ltibia 78.9739
lfoot -25.8005 8.62025
ltoes -10.2341
141
root 45.3302 13.536 -4.30939 -163.705 85.5264 180.029
lowerback 31.0157 -2.44464 1.04023
upperback 7.49083 -1.97649 0.335724
thorax -8.5501 -0.628853 0.462204
lowerneck -5.36184 -0.190187 2.61545
upperneck -17.9008 0.398973 0.205309
head -5.04883 0.317723 -0.425261
rclavicle -9.64106e-015 -9.14409e-015
rhumerus -17.8366 6.79393 -84.295
rradius 46.5049
rwrist -6.88567
rhand -21.2668 -7.67392
rfingers 7.12502
rthumb 5.1167 -37.5921
lclavicle -9.64106e-015 -9.14409e-015
lhumerus -17.4878 -11.6687 83.1401
lradius 43.5999
lwrist 25.3993
lhand -18.1363 13.1706
lfingers 7.12502
lthumb 8.1388 42.9939
rfemur -68.0273 -8.46384 22.1023
rtibia 85.3619
rfoot -28.4736 -9.2765
rtoes -4.66758
lfemur -66.0472 5.16554 -23.9843
ltibia 78.9661
lfoot -25.7849 8.68679
ltoes -10.0147
142
root 45.3074 13.5366 -4.34128 -162.837 85.7055 180.944
lowerback 31.0883 -2.43247 1.04648
upperback 7.51624 -1.95641 0.32521
thorax -8.55602 -0.618442 0.440521
lowerneck -5.43009 -0.184347 2.66242
upperneck -17.8617 0.400066 0.185896
head -5.02073 0.316128 -0.439687
rclavicle -3.05134e-014 9.14409e-015
rhumerus -17.7924 6.69933 -84.3015
rradius 46.4952
rwrist -6.88773
rhand -21.3161 -7.64968
rfingers 7.12502
rthumb 5.06918 -37.569
lclavicle -3.05134e-014 9.14409e-015
lhumerus -17.374 -11.6525 83.1
lradius 43.573
lwrist 25.3844
lhand -18.137 13.1686
lfingers 7.12502
lthumb 8.1381 42.9919
rfemur -68.105 -8.4063 22.0006
rtibia 85.3418
rfoot -28.1738 -9.1243
rtoes -4.84519
lfemur -66.0582 5.23147 -24.0801
ltibia 78.94
lfoot -25.7635 8.73956
ltoes -9.78778
143
root 45.2838 13.5386 -4.37436 -161.794 85.8997 182.025
lowerback 31.1588 -2.41689 1.05204
upperback 7.53984 -1.93267 0.314976
thorax -8.56291 -0.606505 0.418159
lowerneck -5.501 -0.176922 2.71263
upperneck -17.8219 0.402194 0.159936
head -4.99188 0.315147 -0.456925
rclavicle -2.04748e-014 -1.05356e-014
rhumerus -17.7434 6.60528 -84.3089
rradius 46.4832
rwrist -6.88646
rhand -21.3659 -7.60846
rfingers 7.12502
rthumb 5.02105 -37.529
lclavicle -2.04748e-014 -1.05356e-014
lhumerus -17.2612 -11.6353 83.0597
lradius 43.5484
lwrist 25.3617
lhand -18.1382 13.1458
lfingers 7.12502
lthumb 8.13695 42.9692
rfemur -68.1979 -8.34143 21.895
rtibia 85.3196
rfoot -27.8357 -8.94134
rtoes -5.06364
lfemur -66.0713 5.31933 -24.1813
ltibia 78.8949
lfoot -25.7334 8.78064
ltoes -9.56684
